<?xml version="1.0" encoding="UTF-8"?>
<svg id="Layer_2" data-name="Layer 2" xmlns="http://www.w3.org/2000/svg" viewBox="0 0 4876.75 6502.33">
  <defs>
    <style>
      .cls-1 {
        fill: #fff;
      }
    </style>
  </defs>
  <g id="g110">
    <path class="cls-1" d="M2300.82,699.16c1.08,1.09,1.4,2.73.8,4.17-.6,1.42-1.99,2.34-3.53,2.34h-52.1v31.92c0,1.07-.86,1.92-1.92,1.92h-29.6c-1.06,0-1.92-.85-1.92-1.92v-31.92h-51c-2.12,0-3.83-1.71-3.83-3.83v-23.27c0-.86.28-1.69.81-2.37l88.75-113.22h-81.94c-2.12,0-3.83-1.71-3.83-3.83v-25.8c0-2.13,1.71-3.84,3.83-3.84h47.19v-31.93c0-1.05.86-1.91,1.91-1.91h29.61c1.05,0,1.91.86,1.91,1.91v31.93h48.15c2.13,0,3.83,1.71,3.83,3.84v22.26c0,.85-.28,1.68-.8,2.36l-89.28,114.23h73c1.53,0,2.91.91,3.52,2.32,3.9,9.06,9.18,17.11,15.71,23.91.1.12.21.21.32.32.13.14.28.27.41.41Z"/>
  </g>
</svg>